<mxfile host="app.diagrams.net" modified="2023-09-07T15:11:05.688Z" agent="Mozilla/5.0 (Windows NT 10.0; Win64; x64) AppleWebKit/537.36 (KHTML, like Gecko) Chrome/116.0.0.0 Safari/537.36" etag="veGkSQ2R3lR_h4nnkIw3" version="21.7.2" type="github">
  <diagram name="Page-1" id="a_P2lWS2gInkUdD_iHsD">
    <mxGraphModel dx="2261" dy="790" grid="1" gridSize="10" guides="1" tooltips="1" connect="1" arrows="1" fold="1" page="1" pageScale="1" pageWidth="827" pageHeight="1169" math="0" shadow="0">
      <root>
        <mxCell id="0" />
        <mxCell id="1" parent="0" />
        <mxCell id="Wq5x8UkP35FSF27K5X08-7" value="" style="edgeStyle=orthogonalEdgeStyle;rounded=0;orthogonalLoop=1;jettySize=auto;html=1;" parent="1" source="Wq5x8UkP35FSF27K5X08-3" target="Wq5x8UkP35FSF27K5X08-4" edge="1">
          <mxGeometry relative="1" as="geometry" />
        </mxCell>
        <mxCell id="Wq5x8UkP35FSF27K5X08-3" value="Front End" style="rounded=0;whiteSpace=wrap;html=1;" parent="1" vertex="1">
          <mxGeometry x="270" y="70" width="120" height="60" as="geometry" />
        </mxCell>
        <mxCell id="Wq5x8UkP35FSF27K5X08-9" value="" style="edgeStyle=orthogonalEdgeStyle;rounded=0;orthogonalLoop=1;jettySize=auto;html=1;" parent="1" source="Wq5x8UkP35FSF27K5X08-4" target="Wq5x8UkP35FSF27K5X08-8" edge="1">
          <mxGeometry relative="1" as="geometry" />
        </mxCell>
        <mxCell id="Wq5x8UkP35FSF27K5X08-11" value="" style="edgeStyle=orthogonalEdgeStyle;rounded=0;orthogonalLoop=1;jettySize=auto;html=1;" parent="1" source="Wq5x8UkP35FSF27K5X08-4" target="Wq5x8UkP35FSF27K5X08-10" edge="1">
          <mxGeometry relative="1" as="geometry" />
        </mxCell>
        <mxCell id="Wq5x8UkP35FSF27K5X08-4" value="Service Library" style="rounded=0;whiteSpace=wrap;html=1;" parent="1" vertex="1">
          <mxGeometry x="270" y="190" width="120" height="60" as="geometry" />
        </mxCell>
        <mxCell id="Wq5x8UkP35FSF27K5X08-6" value="" style="edgeStyle=orthogonalEdgeStyle;rounded=0;orthogonalLoop=1;jettySize=auto;html=1;" parent="1" source="Wq5x8UkP35FSF27K5X08-5" target="Wq5x8UkP35FSF27K5X08-3" edge="1">
          <mxGeometry relative="1" as="geometry" />
        </mxCell>
        <mxCell id="Wq5x8UkP35FSF27K5X08-5" value="Actor" style="shape=umlActor;verticalLabelPosition=bottom;verticalAlign=top;html=1;outlineConnect=0;" parent="1" vertex="1">
          <mxGeometry x="440" y="20" width="30" height="60" as="geometry" />
        </mxCell>
        <mxCell id="Wq5x8UkP35FSF27K5X08-13" value="" style="edgeStyle=orthogonalEdgeStyle;rounded=0;orthogonalLoop=1;jettySize=auto;html=1;" parent="1" source="Wq5x8UkP35FSF27K5X08-8" target="Wq5x8UkP35FSF27K5X08-12" edge="1">
          <mxGeometry relative="1" as="geometry" />
        </mxCell>
        <mxCell id="Wq5x8UkP35FSF27K5X08-15" value="" style="edgeStyle=orthogonalEdgeStyle;rounded=0;orthogonalLoop=1;jettySize=auto;html=1;" parent="1" source="Wq5x8UkP35FSF27K5X08-8" target="Wq5x8UkP35FSF27K5X08-14" edge="1">
          <mxGeometry relative="1" as="geometry" />
        </mxCell>
        <mxCell id="Wq5x8UkP35FSF27K5X08-8" value="Send To PTX" style="whiteSpace=wrap;html=1;rounded=0;" parent="1" vertex="1">
          <mxGeometry x="110" y="330" width="120" height="60" as="geometry" />
        </mxCell>
        <mxCell id="cASJa9247TysYdl5Nniw-7" value="" style="edgeStyle=orthogonalEdgeStyle;rounded=0;orthogonalLoop=1;jettySize=auto;html=1;" parent="1" source="Wq5x8UkP35FSF27K5X08-10" target="cASJa9247TysYdl5Nniw-6" edge="1">
          <mxGeometry relative="1" as="geometry" />
        </mxCell>
        <mxCell id="Wq5x8UkP35FSF27K5X08-10" value="BizTalk" style="whiteSpace=wrap;html=1;rounded=0;" parent="1" vertex="1">
          <mxGeometry x="490" y="320" width="120" height="60" as="geometry" />
        </mxCell>
        <mxCell id="cASJa9247TysYdl5Nniw-5" value="" style="edgeStyle=orthogonalEdgeStyle;rounded=0;orthogonalLoop=1;jettySize=auto;html=1;" parent="1" source="Wq5x8UkP35FSF27K5X08-12" target="cASJa9247TysYdl5Nniw-4" edge="1">
          <mxGeometry relative="1" as="geometry" />
        </mxCell>
        <mxCell id="Wq5x8UkP35FSF27K5X08-12" value="Approved By Finance" style="whiteSpace=wrap;html=1;rounded=0;" parent="1" vertex="1">
          <mxGeometry x="10" y="440" width="120" height="60" as="geometry" />
        </mxCell>
        <mxCell id="cASJa9247TysYdl5Nniw-3" value="" style="edgeStyle=orthogonalEdgeStyle;rounded=0;orthogonalLoop=1;jettySize=auto;html=1;" parent="1" source="Wq5x8UkP35FSF27K5X08-14" target="cASJa9247TysYdl5Nniw-2" edge="1">
          <mxGeometry relative="1" as="geometry" />
        </mxCell>
        <mxCell id="Wq5x8UkP35FSF27K5X08-14" value="Rejected By Finance&lt;br&gt;" style="whiteSpace=wrap;html=1;rounded=0;" parent="1" vertex="1">
          <mxGeometry x="200" y="440" width="120" height="60" as="geometry" />
        </mxCell>
        <mxCell id="Wq5x8UkP35FSF27K5X08-16" value="-£100" style="text;html=1;strokeColor=none;fillColor=none;align=center;verticalAlign=middle;whiteSpace=wrap;rounded=0;" parent="1" vertex="1">
          <mxGeometry x="340" y="150" width="60" height="30" as="geometry" />
        </mxCell>
        <mxCell id="Wq5x8UkP35FSF27K5X08-17" value="-£100" style="text;html=1;strokeColor=none;fillColor=none;align=center;verticalAlign=middle;whiteSpace=wrap;rounded=0;" parent="1" vertex="1">
          <mxGeometry x="180" y="260" width="60" height="30" as="geometry" />
        </mxCell>
        <mxCell id="Wq5x8UkP35FSF27K5X08-18" value="-£100" style="text;html=1;strokeColor=none;fillColor=none;align=center;verticalAlign=middle;whiteSpace=wrap;rounded=0;" parent="1" vertex="1">
          <mxGeometry x="490" y="260" width="60" height="30" as="geometry" />
        </mxCell>
        <mxCell id="Wq5x8UkP35FSF27K5X08-19" value="&lt;h1&gt;Withdrawal Process&lt;/h1&gt;" style="text;html=1;strokeColor=none;fillColor=none;spacing=5;spacingTop=-20;whiteSpace=wrap;overflow=hidden;rounded=0;" parent="1" vertex="1">
          <mxGeometry x="30" y="20" width="190" height="60" as="geometry" />
        </mxCell>
        <mxCell id="cASJa9247TysYdl5Nniw-2" value="Manual process to reverse the money taken off the card" style="rounded=0;whiteSpace=wrap;html=1;" parent="1" vertex="1">
          <mxGeometry x="200" y="580" width="120" height="60" as="geometry" />
        </mxCell>
        <mxCell id="cASJa9247TysYdl5Nniw-4" value="User gets their money and the process is complete" style="whiteSpace=wrap;html=1;rounded=0;" parent="1" vertex="1">
          <mxGeometry x="10" y="580" width="120" height="60" as="geometry" />
        </mxCell>
        <mxCell id="cASJa9247TysYdl5Nniw-6" value="FIS Update" style="whiteSpace=wrap;html=1;rounded=0;" parent="1" vertex="1">
          <mxGeometry x="490" y="460" width="120" height="60" as="geometry" />
        </mxCell>
        <mxCell id="cASJa9247TysYdl5Nniw-8" value="-£100" style="text;html=1;strokeColor=none;fillColor=none;align=center;verticalAlign=middle;whiteSpace=wrap;rounded=0;" parent="1" vertex="1">
          <mxGeometry x="480" y="410" width="60" height="30" as="geometry" />
        </mxCell>
        <mxCell id="8iJPKLHa7CiwyK9e4F-S-10" value="" style="edgeStyle=orthogonalEdgeStyle;rounded=0;orthogonalLoop=1;jettySize=auto;html=1;" edge="1" parent="1" source="8iJPKLHa7CiwyK9e4F-S-1" target="8iJPKLHa7CiwyK9e4F-S-9">
          <mxGeometry relative="1" as="geometry" />
        </mxCell>
        <mxCell id="8iJPKLHa7CiwyK9e4F-S-14" value="" style="edgeStyle=orthogonalEdgeStyle;rounded=0;orthogonalLoop=1;jettySize=auto;html=1;" edge="1" parent="1" source="8iJPKLHa7CiwyK9e4F-S-1" target="8iJPKLHa7CiwyK9e4F-S-13">
          <mxGeometry relative="1" as="geometry" />
        </mxCell>
        <mxCell id="8iJPKLHa7CiwyK9e4F-S-1" value="TMO API Services&amp;nbsp;" style="ellipse;whiteSpace=wrap;html=1;" vertex="1" parent="1">
          <mxGeometry x="110" y="1360" width="120" height="80" as="geometry" />
        </mxCell>
        <mxCell id="8iJPKLHa7CiwyK9e4F-S-8" value="" style="edgeStyle=orthogonalEdgeStyle;rounded=0;orthogonalLoop=1;jettySize=auto;html=1;" edge="1" parent="1" source="8iJPKLHa7CiwyK9e4F-S-2" target="8iJPKLHa7CiwyK9e4F-S-7">
          <mxGeometry relative="1" as="geometry" />
        </mxCell>
        <mxCell id="8iJPKLHa7CiwyK9e4F-S-16" value="" style="edgeStyle=orthogonalEdgeStyle;rounded=0;orthogonalLoop=1;jettySize=auto;html=1;" edge="1" parent="1" source="8iJPKLHa7CiwyK9e4F-S-2" target="8iJPKLHa7CiwyK9e4F-S-15">
          <mxGeometry relative="1" as="geometry" />
        </mxCell>
        <mxCell id="8iJPKLHa7CiwyK9e4F-S-2" value="TMC API Services" style="ellipse;whiteSpace=wrap;html=1;" vertex="1" parent="1">
          <mxGeometry x="395" y="1360" width="120" height="80" as="geometry" />
        </mxCell>
        <mxCell id="8iJPKLHa7CiwyK9e4F-S-5" value="" style="edgeStyle=orthogonalEdgeStyle;rounded=0;orthogonalLoop=1;jettySize=auto;html=1;" edge="1" parent="1" source="8iJPKLHa7CiwyK9e4F-S-3" target="8iJPKLHa7CiwyK9e4F-S-1">
          <mxGeometry relative="1" as="geometry" />
        </mxCell>
        <mxCell id="8iJPKLHa7CiwyK9e4F-S-3" value="Front End TMO" style="rounded=0;whiteSpace=wrap;html=1;" vertex="1" parent="1">
          <mxGeometry x="110" y="1220" width="120" height="60" as="geometry" />
        </mxCell>
        <mxCell id="8iJPKLHa7CiwyK9e4F-S-6" value="" style="edgeStyle=orthogonalEdgeStyle;rounded=0;orthogonalLoop=1;jettySize=auto;html=1;" edge="1" parent="1" source="8iJPKLHa7CiwyK9e4F-S-4" target="8iJPKLHa7CiwyK9e4F-S-2">
          <mxGeometry relative="1" as="geometry" />
        </mxCell>
        <mxCell id="8iJPKLHa7CiwyK9e4F-S-4" value="Front End TMC" style="rounded=0;whiteSpace=wrap;html=1;" vertex="1" parent="1">
          <mxGeometry x="395" y="1220" width="120" height="60" as="geometry" />
        </mxCell>
        <mxCell id="8iJPKLHa7CiwyK9e4F-S-7" value="TMC Release Pipelines" style="shape=process;whiteSpace=wrap;html=1;backgroundOutline=1;" vertex="1" parent="1">
          <mxGeometry x="550" y="1370" width="120" height="60" as="geometry" />
        </mxCell>
        <mxCell id="8iJPKLHa7CiwyK9e4F-S-9" value="TMO Release Pipelines" style="shape=process;whiteSpace=wrap;html=1;backgroundOutline=1;" vertex="1" parent="1">
          <mxGeometry x="-50" y="1370" width="120" height="60" as="geometry" />
        </mxCell>
        <mxCell id="8iJPKLHa7CiwyK9e4F-S-12" value="Release every two weeks" style="text;html=1;strokeColor=none;fillColor=none;align=center;verticalAlign=middle;whiteSpace=wrap;rounded=0;" vertex="1" parent="1">
          <mxGeometry x="570" y="1320" width="120" height="30" as="geometry" />
        </mxCell>
        <mxCell id="8iJPKLHa7CiwyK9e4F-S-13" value="TMO Git Repo" style="ellipse;whiteSpace=wrap;html=1;aspect=fixed;" vertex="1" parent="1">
          <mxGeometry x="130" y="1520" width="80" height="80" as="geometry" />
        </mxCell>
        <mxCell id="8iJPKLHa7CiwyK9e4F-S-15" value="TMC Git Repo" style="ellipse;whiteSpace=wrap;html=1;aspect=fixed;" vertex="1" parent="1">
          <mxGeometry x="415" y="1520" width="80" height="80" as="geometry" />
        </mxCell>
      </root>
    </mxGraphModel>
  </diagram>
</mxfile>
